<svg width="16" height="17" viewBox="0 0 16 17" fill="none" xmlns="http://www.w3.org/2000/svg">
<path d="M15.25 4.25V8.75H13.75V4.25M13.75 10.25H15.25V11.75H13.75M7 0.5C6.60218 0.5 6.22064 0.658035 5.93934 0.93934C5.65804 1.22064 5.5 1.60218 5.5 2C5.49474 2.0724 5.49474 2.1451 5.5 2.2175C3.34 2.855 1.75 4.865 1.75 7.25V11.75L0.25 13.25V14H13.75V13.25L12.25 11.75V7.25C12.25 4.865 10.66 2.855 8.5 2.2175C8.50526 2.1451 8.50526 2.0724 8.5 2C8.5 1.60218 8.34196 1.22064 8.06066 0.93934C7.77936 0.658035 7.39782 0.5 7 0.5ZM5.5 14.75C5.5 15.1478 5.65804 15.5294 5.93934 15.8107C6.22064 16.092 6.60218 16.25 7 16.25C7.39782 16.25 7.77936 16.092 8.06066 15.8107C8.34196 15.5294 8.5 15.1478 8.5 14.75H5.5Z" fill="#FF9F43"/>
</svg>
