<svg width="35" height="34" viewBox="0 0 35 34" fill="none" xmlns="http://www.w3.org/2000/svg">
<path d="M25.15 9.63337L14.1667 20.6167L8.18337 14.65L5.83337 17L14.1667 25.3334L27.5 12L25.15 9.63337ZM17.5 0.333374C8.30004 0.333374 0.833374 7.80004 0.833374 17C0.833374 26.2 8.30004 33.6667 17.5 33.6667C26.7 33.6667 34.1667 26.2 34.1667 17C34.1667 7.80004 26.7 0.333374 17.5 0.333374ZM17.5 30.3334C10.1334 30.3334 4.16671 24.3667 4.16671 17C4.16671 9.63337 10.1334 3.66671 17.5 3.66671C24.8667 3.66671 30.8334 9.63337 30.8334 17C30.8334 24.3667 24.8667 30.3334 17.5 30.3334Z" fill="#40B17B" fill-opacity="0.54"/>
</svg>
