<svg width="12" height="12" viewBox="0 0 12 12" fill="none" xmlns="http://www.w3.org/2000/svg">
<path d="M9.60938 7.3125H8.95312C8.8661 7.3125 8.78264 7.34707 8.72111 7.40861C8.65957 7.47014 8.625 7.5536 8.625 7.64062V9.9375H2.0625V3.375H5.01562C5.10265 3.375 5.18611 3.34043 5.24764 3.27889C5.30918 3.21736 5.34375 3.1339 5.34375 3.04688V2.39062C5.34375 2.3036 5.30918 2.22014 5.24764 2.15861C5.18611 2.09707 5.10265 2.0625 5.01562 2.0625H1.73438C1.4733 2.0625 1.22292 2.16621 1.03832 2.35082C0.853711 2.53542 0.75 2.7858 0.75 3.04688L0.75 10.2656C0.75 10.5267 0.853711 10.7771 1.03832 10.9617C1.22292 11.1463 1.4733 11.25 1.73438 11.25H8.95312C9.2142 11.25 9.46458 11.1463 9.64918 10.9617C9.83379 10.7771 9.9375 10.5267 9.9375 10.2656V7.64062C9.9375 7.5536 9.90293 7.47014 9.84139 7.40861C9.77986 7.34707 9.6964 7.3125 9.60938 7.3125ZM10.7578 0.75H8.13281C7.69456 0.75 7.47554 1.28136 7.78418 1.59082L8.51692 2.32356L3.51855 7.32009C3.47267 7.36581 3.43626 7.42015 3.41142 7.47997C3.38658 7.5398 3.37379 7.60394 3.37379 7.66872C3.37379 7.7335 3.38658 7.79764 3.41142 7.85747C3.43626 7.91729 3.47267 7.97163 3.51855 8.01735L3.98347 8.48145C4.02919 8.52733 4.08353 8.56374 4.14335 8.58858C4.20318 8.61342 4.26732 8.62621 4.3321 8.62621C4.39688 8.62621 4.46102 8.61342 4.52085 8.58858C4.58067 8.56374 4.63501 8.52733 4.68073 8.48145L9.67664 3.4841L10.4092 4.21582C10.7168 4.52344 11.25 4.30811 11.25 3.86719V1.24219C11.25 1.11165 11.1981 0.986461 11.1058 0.894158C11.0135 0.801855 10.8883 0.75 10.7578 0.75Z" fill="#858D95"/>
</svg>
