<svg width="18" height="18" viewBox="0 0 18 18" fill="none" xmlns="http://www.w3.org/2000/svg">
<g clip-path="url(#clip0_7863_13313)">
<path d="M14.338 1.60542L9.34557 0.0386747C9.1821 -0.0125661 9.0054 -0.0125661 8.84194 0.0386747L3.84872 1.60542C3.05511 1.85371 2.3648 2.33105 1.87585 2.96963C1.3869 3.60821 1.12418 4.37556 1.125 5.16267V9.00043C1.125 14.6727 8.45625 17.8054 8.77022 17.9359C8.87208 17.9785 8.9823 18.0005 9.09375 18.0005C9.20521 18.0005 9.31543 17.9785 9.41728 17.9359C9.73125 17.8054 17.0625 14.6727 17.0625 9.00043V5.16267C17.0633 4.37546 16.8004 3.60805 16.3113 2.96946C15.8222 2.33087 15.1318 1.85359 14.338 1.60542ZM9.09375 14.2504C8.93615 14.2504 8.78208 14.2064 8.65103 14.124C8.51999 14.0416 8.41785 13.9245 8.35754 13.7874C8.29722 13.6504 8.28144 13.4996 8.31219 13.3541C8.34294 13.2086 8.41883 13.075 8.53028 12.9701C8.64172 12.8652 8.78371 12.7938 8.93829 12.7648C9.09287 12.7359 9.25309 12.7507 9.3987 12.8075C9.54431 12.8643 9.66877 12.9604 9.75633 13.0837C9.84389 13.2071 9.89063 13.3521 9.89063 13.5004C9.89063 13.6993 9.80667 13.8901 9.65723 14.0308C9.50779 14.1714 9.3051 14.2504 9.09375 14.2504ZM9.89063 10.5004C9.89063 10.6993 9.80667 10.8901 9.65723 11.0308C9.50779 11.1714 9.3051 11.2504 9.09375 11.2504C8.88241 11.2504 8.67972 11.1714 8.53028 11.0308C8.38083 10.8901 8.29688 10.6993 8.29688 10.5004V4.50042C8.29688 4.30151 8.38083 4.11075 8.53028 3.97009C8.67972 3.82944 8.88241 3.75042 9.09375 3.75042C9.3051 3.75042 9.50779 3.82944 9.65723 3.97009C9.80667 4.11075 9.89063 4.30151 9.89063 4.50042V10.5004Z" fill="#FF6B6B"/>
</g>
<defs>
<clipPath id="clip0_7863_13313">
<rect width="18" height="18" fill="white"/>
</clipPath>
</defs>
</svg>
