<svg width="154" height="54" viewBox="0 0 154 54" fill="none" xmlns="http://www.w3.org/2000/svg">
<path d="M16.6733 27.7778L22.4438 10.4773H30.3944L20.5222 37.7725C19.4309 40.7844 17.6988 42.3239 15.1969 42.3239C12.6951 42.3239 10.9682 40.7844 9.87681 37.7725L0 10.4773H7.95316L13.7246 27.7778C14.3135 29.5866 14.805 31.4256 15.1969 33.287C15.5909 31.4257 16.0837 29.5867 16.6733 27.7778Z" fill="#252525"/>
<path d="M39.4087 10.5465H32.6807V41.9982H39.4087V10.5465Z" fill="#252525"/>
<path d="M63.0586 10.5465H56.3281V41.9982H63.0586V10.5465Z" fill="#252525"/>
<path d="M35.6468 52.8527H31.8789V46.1294H35.647C43.8524 46.1294 44.5319 42.8192 44.5319 39.1299V10.5447H51.2614V39.1299C51.2614 48.1085 45.8625 52.8527 35.6468 52.8527Z" fill="#252525"/>
<path d="M39.2176 0H32.9375V6.27442H39.2176V0Z" fill="#40BDE9"/>
<path d="M51.0496 0H44.7695V6.27442H51.0496V0Z" fill="#40BDE9"/>
<path d="M62.8778 0H56.6001V6.27442H62.8778V0Z" fill="#40BDE9"/>
<path d="M86.7775 42.3068H83.008C72.7951 42.3068 67.395 37.5622 67.395 28.5864V0H74.1257V28.5864C74.1257 32.2741 74.8052 35.5821 83.008 35.5821H86.7775V42.3068Z" fill="#252525"/>
<path d="M118.238 26.5604C118.238 26.3429 118.212 26.1322 118.205 25.9173V25.7604H118.197C118.021 22.2479 116.682 18.8934 114.39 16.2242C112.099 13.5551 108.984 11.7227 105.537 11.015C102.089 10.3074 98.5043 10.7646 95.3452 12.3149C92.1862 13.8651 89.6322 16.4205 88.0849 19.5793C86.5375 22.738 86.0845 26.3211 86.797 29.7652C87.5096 33.2093 89.3472 36.3191 92.0212 38.6058C94.6951 40.8925 98.0537 42.2264 101.569 42.3978C105.084 42.5692 108.557 41.5684 111.441 39.5527V42.108H118.205V27.2033C118.212 26.9886 118.238 26.7777 118.238 26.5604ZM102.372 35.6576C100.599 35.6601 98.8633 35.1447 97.3789 34.175C95.8944 33.2053 94.7258 31.8233 94.0165 30.199C93.3073 28.5746 93.0883 26.7786 93.3865 25.0316C93.6847 23.2846 94.4871 21.6627 95.6951 20.3652C96.903 19.0676 98.464 18.1509 100.186 17.7277C101.908 17.3045 103.717 17.3933 105.389 17.983C107.062 18.5728 108.525 19.6379 109.6 21.0475C110.675 22.4571 111.315 24.1497 111.44 25.9175V27.2035C111.277 29.4965 110.251 31.6428 108.569 33.2111C106.887 34.7794 104.674 35.6533 102.373 35.6574L102.372 35.6576Z" fill="#252525"/>
<path d="M154 26.0684H153.992C153.788 22.0068 152.029 18.1791 149.08 15.3767C146.13 12.5743 142.216 11.0116 138.147 11.0116C134.077 11.0116 130.163 12.5743 127.214 15.3767C124.264 18.1791 122.506 22.0068 122.301 26.0684V42.4163H129.064V26.0684C129.268 23.802 130.312 21.6938 131.993 20.1585C133.674 18.6231 135.869 17.7717 138.146 17.7717C140.423 17.7717 142.617 18.6231 144.298 20.1585C145.979 21.6938 147.024 23.802 147.227 26.0684H147.235V42.4163H153.999V26.0684H154Z" fill="#252525"/>
</svg>
