<svg width="18" height="19" viewBox="0 0 18 19" fill="none" xmlns="http://www.w3.org/2000/svg">
<path d="M17.25 5.75V10.25H15.75V5.75M15.75 11.75H17.25V13.25H15.75M9 2C8.60218 2 8.22064 2.15804 7.93934 2.43934C7.65804 2.72064 7.5 3.10218 7.5 3.5C7.49474 3.5724 7.49474 3.6451 7.5 3.7175C5.34 4.355 3.75 6.365 3.75 8.75V13.25L2.25 14.75V15.5H15.75V14.75L14.25 13.25V8.75C14.25 6.365 12.66 4.355 10.5 3.7175C10.5053 3.6451 10.5053 3.5724 10.5 3.5C10.5 3.10218 10.342 2.72064 10.0607 2.43934C9.77936 2.15804 9.39782 2 9 2ZM7.5 16.25C7.5 16.6478 7.65804 17.0294 7.93934 17.3107C8.22064 17.592 8.60218 17.75 9 17.75C9.39782 17.75 9.77936 17.592 10.0607 17.3107C10.342 17.0294 10.5 16.6478 10.5 16.25H7.5Z" fill="#FF9F43"/>
</svg>
