<svg width="24" height="24" viewBox="0 0 24 24" fill="none" xmlns="http://www.w3.org/2000/svg">
<g clip-path="url(#clip0_8111_17576)">
<path d="M14.838 4.60542L9.84557 3.03867C9.6821 2.98743 9.5054 2.98743 9.34194 3.03867L4.34872 4.60542C3.55511 4.85371 2.8648 5.33105 2.37585 5.96963C1.8869 6.60821 1.62418 7.37556 1.625 8.16267V12.0004C1.625 17.6727 8.95625 20.8054 9.27022 20.9359C9.37208 20.9785 9.4823 21.0005 9.59375 21.0005C9.70521 21.0005 9.81543 20.9785 9.91728 20.9359C10.2313 20.8054 17.5625 17.6727 17.5625 12.0004V8.16267C17.5633 7.37546 17.3004 6.60805 16.8113 5.96946C16.3222 5.33087 15.6318 4.85359 14.838 4.60542ZM9.59375 17.2504C9.43615 17.2504 9.28208 17.2064 9.15103 17.124C9.01999 17.0416 8.91785 16.9245 8.85754 16.7874C8.79722 16.6504 8.78144 16.4996 8.81219 16.3541C8.84294 16.2086 8.91883 16.075 9.03028 15.9701C9.14172 15.8652 9.28371 15.7938 9.43829 15.7648C9.59287 15.7359 9.75309 15.7507 9.8987 15.8075C10.0443 15.8643 10.1688 15.9604 10.2563 16.0837C10.3439 16.2071 10.3906 16.3521 10.3906 16.5004C10.3906 16.6993 10.3067 16.8901 10.1572 17.0308C10.0078 17.1714 9.8051 17.2504 9.59375 17.2504ZM10.3906 13.5004C10.3906 13.6993 10.3067 13.8901 10.1572 14.0308C10.0078 14.1714 9.8051 14.2504 9.59375 14.2504C9.38241 14.2504 9.17972 14.1714 9.03028 14.0308C8.88083 13.8901 8.79688 13.6993 8.79688 13.5004V7.50042C8.79688 7.30151 8.88083 7.11075 9.03028 6.97009C9.17972 6.82944 9.38241 6.75042 9.59375 6.75042C9.8051 6.75042 10.0078 6.82944 10.1572 6.97009C10.3067 7.11075 10.3906 7.30151 10.3906 7.50042V13.5004Z" fill="#6A6E70"/>
</g>
<path d="M16.5 17H20.5V15L23.5 18L20.5 21V19H16.5V17Z" fill="#6A6E70"/>
<defs>
<clipPath id="clip0_8111_17576">
<rect width="18" height="18" fill="white" transform="translate(0.5 3)"/>
</clipPath>
</defs>
</svg>
