<svg width="24" height="24" viewBox="0 0 24 24" fill="none" xmlns="http://www.w3.org/2000/svg">
<path d="M20 3H5C4.46957 3 3.96086 3.21071 3.58579 3.58579C3.21071 3.96086 3 4.46957 3 5V11H7V9L11 12L7 15V13H3V19C3 19.5304 3.21071 20.0391 3.58579 20.4142C3.96086 20.7893 4.46957 21 5 21H20C20.5304 21 21.0391 20.7893 21.4142 20.4142C21.7893 20.0391 22 19.5304 22 19V5C22 4.46957 21.7893 3.96086 21.4142 3.58579C21.0391 3.21071 20.5304 3 20 3ZM17 17H13V15H17V17ZM20 13H13V11H20V13ZM20 9H13V7H20V9ZM3 13H0V11H3V13Z" fill="#6A6E70"/>
</svg>
