<svg width="16" height="16" viewBox="0 0 16 16" fill="none" xmlns="http://www.w3.org/2000/svg">
<g clip-path="url(#clip0_7812_945)">
<path d="M12.7449 1.42707L8.30717 0.0344047C8.16187 -0.0111427 8.0048 -0.0111427 7.8595 0.0344047L3.42109 1.42707C2.71565 1.64777 2.10204 2.07207 1.66742 2.6397C1.2328 3.20732 0.99927 3.88941 1 4.58907V8.00041C1 13.0424 7.51667 15.8271 7.79575 15.9431C7.88629 15.9809 7.98426 16.0005 8.08334 16.0005C8.18241 16.0005 8.28038 15.9809 8.37092 15.9431C8.65 15.8271 15.1667 13.0424 15.1667 8.00041V4.58907C15.1674 3.88933 14.9337 3.20718 14.499 2.63954C14.0642 2.07191 13.4504 1.64766 12.7449 1.42707ZM8.08334 12.6671C7.94324 12.6671 7.80629 12.628 7.68981 12.5547C7.57332 12.4815 7.48253 12.3773 7.42892 12.2555C7.37531 12.1337 7.36128 11.9997 7.38861 11.8703C7.41594 11.741 7.48341 11.6222 7.58247 11.529C7.68153 11.4358 7.80774 11.3723 7.94515 11.3465C8.08255 11.3208 8.22497 11.334 8.3544 11.3845C8.48383 11.4349 8.59446 11.5204 8.67229 11.63C8.75013 11.7397 8.79167 11.8686 8.79167 12.0004C8.79167 12.1772 8.71704 12.3468 8.5842 12.4718C8.45136 12.5968 8.2712 12.6671 8.08334 12.6671ZM8.79167 9.33374C8.79167 9.51055 8.71704 9.68012 8.5842 9.80514C8.45136 9.93017 8.2712 10.0004 8.08334 10.0004C7.89547 10.0004 7.71531 9.93017 7.58247 9.80514C7.44963 9.68012 7.375 9.51055 7.375 9.33374V4.0004C7.375 3.82359 7.44963 3.65402 7.58247 3.529C7.71531 3.40398 7.89547 3.33374 8.08334 3.33374C8.2712 3.33374 8.45136 3.40398 8.5842 3.529C8.71704 3.65402 8.79167 3.82359 8.79167 4.0004V9.33374Z" fill="white"/>
</g>
<defs>
<clipPath id="clip0_7812_945">
<rect width="16" height="16" fill="white"/>
</clipPath>
</defs>
</svg>
