<svg width="16" height="16" viewBox="0 0 16 16" fill="none" xmlns="http://www.w3.org/2000/svg">
<g clip-path="url(#clip0_7812_996)">
<path d="M7.33301 11.6667C7.33385 10.8176 7.58409 9.98753 8.05265 9.27949C8.52122 8.57145 9.18746 8.01665 9.96863 7.68402C10.7498 7.35138 11.6115 7.25555 12.4467 7.40844C13.2818 7.56133 14.0537 7.9562 14.6663 8.544V2C14.6663 1.46957 14.4556 0.960859 14.0806 0.585786C13.7055 0.210714 13.1968 0 12.6663 0L4.66634 0C3.78261 0.00105857 2.93538 0.352588 2.31049 0.97748C1.6856 1.60237 1.33407 2.4496 1.33301 3.33333V12.6667C1.33407 13.5504 1.6856 14.3976 2.31049 15.0225C2.93538 15.6474 3.78261 15.9989 4.66634 16H11.6663C10.5171 16 9.41487 15.5435 8.60221 14.7308C7.78955 13.9181 7.33301 12.8159 7.33301 11.6667ZM4.66634 4.66667C4.66634 4.48986 4.73658 4.32029 4.8616 4.19526C4.98663 4.07024 5.1562 4 5.33301 4H10.6663C10.8432 4 11.0127 4.07024 11.1377 4.19526C11.2628 4.32029 11.333 4.48986 11.333 4.66667C11.333 4.84348 11.2628 5.01305 11.1377 5.13807C11.0127 5.2631 10.8432 5.33333 10.6663 5.33333H5.33301C5.1562 5.33333 4.98663 5.2631 4.8616 5.13807C4.73658 5.01305 4.66634 4.84348 4.66634 4.66667ZM15.8043 15.8047C15.6793 15.9296 15.5098 15.9999 15.333 15.9999C15.1562 15.9999 14.9867 15.9296 14.8617 15.8047L13.257 14.2C12.7818 14.5033 12.2301 14.6652 11.6663 14.6667C11.073 14.6667 10.493 14.4907 9.99963 14.1611C9.50628 13.8314 9.12176 13.3629 8.8947 12.8147C8.66764 12.2665 8.60823 11.6633 8.72398 11.0814C8.83974 10.4995 9.12546 9.9649 9.54502 9.54535C9.96458 9.12579 10.4991 8.84007 11.0811 8.72431C11.663 8.60855 12.2662 8.66796 12.8144 8.89503C13.3626 9.12209 13.8311 9.50661 14.1607 9.99996C14.4904 10.4933 14.6663 11.0733 14.6663 11.6667C14.6648 12.2304 14.503 12.7821 14.1997 13.2573L15.8043 14.862C15.9293 14.987 15.9995 15.1566 15.9995 15.3333C15.9995 15.5101 15.9293 15.6796 15.8043 15.8047Z" fill="#D3DBE1"/>
</g>
<path d="M15.805 15.8047C15.68 15.9297 15.5104 15.9999 15.3337 15.9999C15.1569 15.9999 14.9873 15.9297 14.8623 15.8047L13.2577 14.2C12.7824 14.5033 12.2308 14.6652 11.667 14.6667C11.0737 14.6667 10.4936 14.4907 10.0003 14.1611C9.50694 13.8315 9.12242 13.3629 8.89536 12.8147C8.66829 12.2666 8.60888 11.6634 8.72464 11.0814C8.84039 10.4995 9.12612 9.96493 9.54567 9.54537C9.96523 9.12581 10.4998 8.84009 11.0817 8.72433C11.6637 8.60858 12.2669 8.66799 12.815 8.89505C13.3632 9.12211 13.8318 9.50663 14.1614 9.99998C14.491 10.4933 14.667 11.0733 14.667 11.6667C14.6655 12.2304 14.5036 12.7821 14.2003 13.2574L15.805 14.862C15.93 14.987 16.0002 15.1566 16.0002 15.3334C16.0002 15.5101 15.93 15.6797 15.805 15.8047Z" fill="#919CB8"/>
<defs>
<clipPath id="clip0_7812_996">
<rect width="16" height="16" fill="white"/>
</clipPath>
</defs>
</svg>
