<svg width="16" height="16" viewBox="0 0 16 16" fill="none" xmlns="http://www.w3.org/2000/svg">
<g clip-path="url(#clip0_7812_838)">
<path d="M4.66667 0H2.66667C1.19391 0 0 1.19391 0 2.66667V4.66667C0 6.13943 1.19391 7.33333 2.66667 7.33333H4.66667C6.13943 7.33333 7.33333 6.13943 7.33333 4.66667V2.66667C7.33333 1.19391 6.13943 0 4.66667 0Z" fill="#D3DBE1"/>
<path d="M13.3337 0H11.3337C9.8609 0 8.66699 1.19391 8.66699 2.66667V4.66667C8.66699 6.13943 9.8609 7.33334 11.3337 7.33334H13.3337C14.8064 7.33334 16.0003 6.13943 16.0003 4.66667V2.66667C16.0003 1.19391 14.8064 0 13.3337 0Z" fill="#D3DBE1"/>
<path d="M4.66667 8.66669H2.66667C1.19391 8.66669 0 9.8606 0 11.3334V13.3334C0 14.8061 1.19391 16 2.66667 16H4.66667C6.13943 16 7.33333 14.8061 7.33333 13.3334V11.3334C7.33333 9.8606 6.13943 8.66669 4.66667 8.66669Z" fill="#D3DBE1"/>
<path d="M13.3337 8.66669H11.3337C9.8609 8.66669 8.66699 9.8606 8.66699 11.3334V13.3334C8.66699 14.8061 9.8609 16 11.3337 16H13.3337C14.8064 16 16.0003 14.8061 16.0003 13.3334V11.3334C16.0003 9.8606 14.8064 8.66669 13.3337 8.66669Z" fill="#D3DBE1"/>
</g>
<g clip-path="url(#clip1_7812_838)">
<path d="M13.3337 8.66669H11.3337C9.8609 8.66669 8.66699 9.8606 8.66699 11.3334V13.3334C8.66699 14.8061 9.8609 16 11.3337 16H13.3337C14.8064 16 16.0003 14.8061 16.0003 13.3334V11.3334C16.0003 9.8606 14.8064 8.66669 13.3337 8.66669Z" fill="#919CB8"/>
</g>
<defs>
<clipPath id="clip0_7812_838">
<rect width="16" height="16" fill="white"/>
</clipPath>
<clipPath id="clip1_7812_838">
<rect width="16" height="16" fill="white"/>
</clipPath>
</defs>
</svg>
