<svg width="52" height="18" viewBox="0 0 52 18" fill="none" xmlns="http://www.w3.org/2000/svg">
<g clip-path="url(#clip0_7131_93430)">
<path d="M6.02167 9.25903L7.93268 3.49219H10.5657L7.29633 12.5906C6.93491 13.5946 6.3613 14.1077 5.53275 14.1077C4.70421 14.1077 4.13231 13.5946 3.77089 12.5906L0.5 3.49219H3.13384L5.04516 9.25903C5.24019 9.86196 5.40295 10.475 5.53275 11.0954C5.66322 10.475 5.82642 9.862 6.02167 9.25903Z" fill="white"/>
<path d="M13.5506 3.51562H11.3225V13.9995H13.5506V3.51562Z" fill="white"/>
<path d="M21.383 3.51562H19.1541V13.9995H21.383V3.51562Z" fill="white"/>
<path d="M12.3054 17.6183H11.0576V15.3772H12.3055C15.0229 15.3772 15.2479 14.2738 15.2479 13.044V3.51562H17.4765V13.044C17.4765 16.0369 15.6886 17.6183 12.3054 17.6183Z" fill="white"/>
<path d="M13.4875 0H11.4077V2.09147H13.4875V0Z" fill="white"/>
<path d="M17.4059 0H15.3262V2.09147H17.4059V0Z" fill="white"/>
<path d="M21.3234 0H19.2444V2.09147H21.3234V0Z" fill="white"/>
<path d="M29.2382 14.1023H27.9899C24.6077 14.1023 22.8193 12.5207 22.8193 9.5288V0H25.0483V9.5288C25.0483 10.758 25.2734 11.8607 27.9899 11.8607H29.2382V14.1023Z" fill="white"/>
<path d="M39.6572 8.8544C39.6572 8.7819 39.6487 8.71167 39.6462 8.64003V8.58773H39.6436C39.5853 7.41689 39.1418 6.29873 38.3829 5.40901C37.624 4.5193 36.5926 3.90849 35.4509 3.67261C34.3092 3.43672 33.1219 3.58913 32.0758 4.10589C31.0296 4.62264 30.1838 5.47443 29.6714 6.52736C29.1589 7.58028 29.0089 8.77464 29.2449 9.92267C29.4808 11.0707 30.0894 12.1073 30.9749 12.8695C31.8605 13.6318 32.9727 14.0764 34.1369 14.1335C35.301 14.1907 36.451 13.8571 37.4061 13.1852V14.0369H39.6462V9.0687C39.6487 8.99713 39.6572 8.92683 39.6572 8.8544ZM34.4029 11.8868C33.8156 11.8876 33.2408 11.7159 32.7492 11.3926C32.2576 11.0694 31.8706 10.6087 31.6357 10.0673C31.4009 9.52581 31.3283 8.92715 31.4271 8.34481C31.5258 7.76248 31.7916 7.22184 32.1916 6.78932C32.5917 6.3568 33.1086 6.05124 33.6789 5.91018C34.2493 5.76911 34.8482 5.7987 35.402 5.99528C35.9559 6.19187 36.4406 6.5469 36.7966 7.01676C37.1526 7.48662 37.3643 8.05085 37.4059 8.64011V9.06877C37.3518 9.83311 37.0122 10.5486 36.4551 11.0713C35.8981 11.5941 35.165 11.8854 34.4032 11.8867L34.4029 11.8868Z" fill="white"/>
<path d="M51.5 8.68887H51.4975C51.4297 7.33499 50.8472 6.05909 49.8705 5.12496C48.8938 4.19084 47.5976 3.66992 46.2498 3.66992C44.9021 3.66992 43.6059 4.19084 42.6292 5.12496C41.6525 6.05909 41.07 7.33499 41.0022 8.68887V14.1381H43.2419V8.68887C43.3094 7.93341 43.6554 7.23067 44.212 6.71888C44.7686 6.20708 45.4954 5.92328 46.2495 5.92328C47.0036 5.92328 47.7305 6.20708 48.287 6.71888C48.8436 7.23067 49.1897 7.93341 49.2571 8.68887H49.2597V14.1381H51.4997V8.68887H51.5Z" fill="white"/>
</g>
<defs>
<clipPath id="clip0_7131_93430">
<rect width="51" height="18" fill="white" transform="translate(0.5)"/>
</clipPath>
</defs>
</svg>
