<svg width="168" height="36" viewBox="0 0 168 36" fill="none" xmlns="http://www.w3.org/2000/svg">
<g clip-path="url(#clip0_7131_93442)">
<path d="M44.0433 18.5181L47.8654 6.98438H53.1313L46.5927 25.1812C45.8698 27.1891 44.7226 28.2154 43.0655 28.2154C41.4084 28.2154 40.2646 27.1891 39.5418 25.1812L33 6.98438H38.2677L42.0903 18.5181C42.4804 19.7239 42.8059 20.9499 43.0655 22.1908C43.3264 20.95 43.6528 19.724 44.0433 18.5181Z" fill="white"/>
<path d="M59.1015 7.03125H54.6453V27.9991H59.1015V7.03125Z" fill="white"/>
<path d="M74.7662 7.03125H70.3083V27.9991H74.7662V7.03125Z" fill="white"/>
<path d="M56.6108 35.2346H54.1152V30.7525H56.611C62.0457 30.7525 62.4958 28.5456 62.4958 26.0861V7.0293H66.953V26.0861C66.953 32.0719 63.3771 35.2346 56.6108 35.2346Z" fill="white"/>
<path d="M58.9752 0H54.8157V4.18295H58.9752V0Z" fill="white"/>
<path d="M66.8119 0H62.6523V4.18295H66.8119V0Z" fill="white"/>
<path d="M74.647 0H70.489V4.18295H74.647V0Z" fill="white"/>
<path d="M90.4764 28.2046H87.9797C81.2153 28.2046 77.6387 25.0415 77.6387 19.0576V0H82.0966V19.0576C82.0966 21.516 82.5467 23.7214 87.9797 23.7214H90.4764V28.2046Z" fill="white"/>
<path d="M111.314 17.7069C111.314 17.5619 111.297 17.4214 111.292 17.2781V17.1735H111.287C111.17 14.8318 110.283 12.5955 108.766 10.8161C107.248 9.03665 105.185 7.81503 102.902 7.34326C100.618 6.87149 98.2436 7.17632 96.1513 8.20982C94.0589 9.24333 92.3673 10.9469 91.3425 13.0528C90.3176 15.1586 90.0175 17.5473 90.4895 19.8434C90.9614 22.1394 92.1786 24.2127 93.9496 25.7371C95.7207 27.2616 97.9452 28.1509 100.274 28.2651C102.602 28.3794 104.902 27.7122 106.812 26.3684V28.0719H111.292V18.1354C111.297 17.9923 111.314 17.8517 111.314 17.7069ZM100.806 23.7717C99.631 23.7733 98.4814 23.4298 97.4982 22.7833C96.515 22.1368 95.741 21.2155 95.2712 20.1326C94.8015 19.0497 94.6564 17.8523 94.8539 16.6877C95.0514 15.523 95.5829 14.4417 96.383 13.5767C97.1831 12.7117 98.217 12.1005 99.3577 11.8184C100.498 11.5363 101.696 11.5954 102.804 11.9886C103.912 12.3818 104.881 13.0919 105.593 14.0316C106.305 14.9713 106.728 16.0997 106.812 17.2783V18.1356C106.703 19.6643 106.024 21.0951 104.91 22.1407C103.796 23.1862 102.33 23.7688 100.806 23.7715L100.806 23.7717Z" fill="white"/>
<path d="M135 17.3797H134.995C134.859 14.6719 133.694 12.1201 131.741 10.2519C129.788 8.38362 127.195 7.3418 124.5 7.3418C121.804 7.3418 119.212 8.38362 117.258 10.2519C115.305 12.1201 114.14 14.6719 114.004 17.3797V28.2782H118.484V17.3797C118.619 15.8688 119.311 14.4633 120.424 13.4397C121.537 12.4161 122.991 11.8485 124.499 11.8485C126.007 11.8485 127.461 12.4161 128.574 13.4397C129.687 14.4633 130.379 15.8688 130.514 17.3797H130.519V28.2782H134.999V17.3797H135Z" fill="white"/>
</g>
<defs>
<clipPath id="clip0_7131_93442">
<rect width="102" height="36" fill="white" transform="translate(33)"/>
</clipPath>
</defs>
</svg>
