<svg width="16" height="16" viewBox="0 0 16 16" fill="none" xmlns="http://www.w3.org/2000/svg">
<path d="M0.667566 3.16715H2.49138C2.85135 4.49158 4.21681 5.27344 5.54124 4.91348C6.39187 4.68228 7.05637 4.01779 7.28756 3.16715H15.3328C15.7009 3.16715 15.9994 2.86871 15.9994 2.50056C15.9994 2.13241 15.7009 1.83397 15.3328 1.83397H7.28756C6.9276 0.509511 5.56214 -0.272348 4.23771 0.0876158C3.38708 0.318812 2.72258 0.983308 2.49138 1.83394H0.667566C0.299416 1.83394 0.000976562 2.13238 0.000976562 2.50053C0.000976562 2.86868 0.299416 3.16715 0.667566 3.16715Z" fill="#D3DBE1"/>
<path d="M15.3328 7.33374H13.5089C13.1497 6.0095 11.785 5.2272 10.4607 5.58642C9.60943 5.81736 8.94437 6.48239 8.71342 7.33374H0.667566C0.299416 7.33374 0.000976562 7.63218 0.000976562 8.00033C0.000976562 8.36848 0.299416 8.66692 0.667566 8.66692H8.71342C9.07267 9.99117 10.4374 10.7735 11.7616 10.4142C12.6129 10.1833 13.278 9.51828 13.5089 8.66692H15.3328C15.7009 8.66692 15.9994 8.36848 15.9994 8.00033C15.9994 7.63218 15.7009 7.33374 15.3328 7.33374Z" fill="#D3DBE1"/>
<path d="M15.3328 12.8328H7.28756C6.9276 11.5084 5.56214 10.7266 4.23771 11.0865C3.38708 11.3177 2.72258 11.9822 2.49138 12.8328H0.667566C0.299416 12.8328 0.000976562 13.1313 0.000976562 13.4994C0.000976562 13.8676 0.299416 14.166 0.667566 14.166H2.49138C2.85135 15.4904 4.21681 16.2723 5.54124 15.9123C6.39187 15.6811 7.05637 15.0166 7.28756 14.166H15.3328C15.7009 14.166 15.9994 13.8676 15.9994 13.4994C15.9994 13.1313 15.7009 12.8328 15.3328 12.8328Z" fill="#919CB8"/>
</svg>
