<svg width="16" height="16" viewBox="0 0 16 16" fill="none" xmlns="http://www.w3.org/2000/svg">
<g clip-path="url(#clip0_7812_1018)">
<path d="M11.333 0H5.33301V10.6667H14.6663V3.33333C14.6663 2.44928 14.3152 1.60143 13.69 0.976311C13.0649 0.351189 12.2171 0 11.333 0V0Z" fill="#D3DBE1"/>
<path d="M2.92967 10.7074C3.0624 10.6803 3.19754 10.6666 3.33301 10.6667H3.99967V0.0667114C3.24677 0.220398 2.57008 0.629499 2.08414 1.22478C1.5982 1.82005 1.33285 2.56494 1.33301 3.33338V11.35C1.79904 10.9984 2.34999 10.7767 2.92967 10.7074Z" fill="#D3DBE1"/>
<path d="M14.6663 12H3.33301C2.80257 12 2.29387 12.2107 1.91879 12.5858C1.54372 12.9609 1.33301 13.4696 1.33301 14C1.33301 14.5304 1.54372 15.0391 1.91879 15.4142C2.29387 15.7893 2.80257 16 3.33301 16H11.333C11.7707 16 12.2042 15.9138 12.6086 15.7463C13.013 15.5787 13.3805 15.3332 13.69 15.0237C13.9996 14.7142 14.2451 14.3467 14.4126 13.9423C14.5801 13.5379 14.6663 13.1044 14.6663 12.6667V12Z" fill="#919CB8"/>
</g>
<defs>
<clipPath id="clip0_7812_1018">
<rect width="16" height="16" fill="white"/>
</clipPath>
</defs>
</svg>
