<svg width="16" height="16" viewBox="0 0 16 16" fill="none" xmlns="http://www.w3.org/2000/svg">
<g clip-path="url(#clip0_7812_921)">
<path d="M14.9897 7.31687L7.99968 11.5115L1.00967 7.31687C0.858059 7.2259 0.676516 7.19889 0.504982 7.24177C0.333449 7.28465 0.185977 7.39392 0.0950075 7.54554C0.00403825 7.69715 -0.0229762 7.8787 0.0199072 8.05023C0.0627905 8.22176 0.172059 8.36923 0.323674 8.4602L7.65701 12.8602C7.7607 12.9225 7.87938 12.9554 8.00034 12.9554C8.1213 12.9554 8.23999 12.9225 8.34368 12.8602L15.677 8.4602C15.8286 8.36923 15.9379 8.22176 15.9808 8.05023C16.0237 7.8787 15.9966 7.69715 15.9057 7.54554C15.8147 7.39392 15.6672 7.28465 15.4957 7.24177C15.3242 7.19889 15.1426 7.2259 14.991 7.31687H14.9897Z" fill="#919CB8"/>
<path d="M14.9897 10.3619L7.99967 14.5559L1.00967 10.3619C0.9346 10.3168 0.851391 10.287 0.764796 10.2741C0.6782 10.2613 0.589915 10.2655 0.50498 10.2868C0.420046 10.308 0.340125 10.3458 0.269781 10.3979C0.199438 10.45 0.140049 10.5155 0.0950055 10.5906C0.0499621 10.6656 0.0201464 10.7488 0.00726063 10.8354C-0.00562511 10.922 -0.00132848 11.0103 0.0199052 11.0952C0.0627885 11.2668 0.172057 11.4143 0.323672 11.5052L7.65701 15.9052C7.76069 15.9675 7.87938 16.0004 8.00034 16.0004C8.1213 16.0004 8.23998 15.9675 8.34367 15.9052L15.677 11.5052C15.8286 11.4143 15.9379 11.2668 15.9808 11.0952C16.0237 10.9237 15.9966 10.7422 15.9057 10.5906C15.8147 10.4389 15.6672 10.3297 15.4957 10.2868C15.3242 10.2439 15.1426 10.2709 14.991 10.3619H14.9897Z" fill="#919CB8"/>
<path d="M0.323122 5.57159L6.97912 9.56559C7.2873 9.75099 7.64015 9.84894 7.99979 9.84894C8.35943 9.84894 8.71228 9.75099 9.02046 9.56559L15.6765 5.57159C15.775 5.51233 15.8566 5.42856 15.9132 5.32845C15.9698 5.22834 15.9996 5.11528 15.9996 5.00026C15.9996 4.88525 15.9698 4.77219 15.9132 4.67207C15.8566 4.57196 15.775 4.4882 15.6765 4.42893L9.02046 0.434928C8.71221 0.249747 8.35938 0.151917 7.99979 0.151917C7.64019 0.151917 7.28737 0.249747 6.97912 0.434928L0.323122 4.42893C0.224554 4.4882 0.142996 4.57196 0.0863762 4.67207C0.0297562 4.77219 0 4.88525 0 5.00026C0 5.11528 0.0297562 5.22834 0.0863762 5.32845C0.142996 5.42856 0.224554 5.51233 0.323122 5.57159Z" fill="#D3DBE1"/>
</g>
<defs>
<clipPath id="clip0_7812_921">
<rect width="16" height="16" fill="white"/>
</clipPath>
</defs>
</svg>
