<svg width="22" height="20" viewBox="0 0 22 20" fill="none" xmlns="http://www.w3.org/2000/svg">
<g clip-path="url(#clip0_8170_7462)">
<path d="M12.838 2.60542L7.84557 1.03867C7.6821 0.987434 7.5054 0.987434 7.34194 1.03867L2.34872 2.60542C1.55511 2.85371 0.864796 3.33105 0.375848 3.96963C-0.1131 4.60821 -0.375822 5.37556 -0.374998 6.16267V10.0004C-0.374998 15.6727 6.95625 18.8054 7.27022 18.9359C7.37208 18.9785 7.4823 19.0005 7.59375 19.0005C7.70521 19.0005 7.81543 18.9785 7.91728 18.9359C8.23125 18.8054 15.5625 15.6727 15.5625 10.0004V6.16267C15.5633 5.37546 15.3004 4.60805 14.8113 3.96946C14.3222 3.33087 13.6318 2.85359 12.838 2.60542ZM7.59375 15.2504C7.43615 15.2504 7.28208 15.2064 7.15103 15.124C7.01999 15.0416 6.91785 14.9245 6.85754 14.7874C6.79722 14.6504 6.78144 14.4996 6.81219 14.3541C6.84294 14.2086 6.91883 14.075 7.03028 13.9701C7.14172 13.8652 7.28371 13.7938 7.43829 13.7648C7.59287 13.7359 7.75309 13.7507 7.8987 13.8075C8.04431 13.8643 8.16877 13.9604 8.25633 14.0837C8.34389 14.2071 8.39063 14.3521 8.39063 14.5004C8.39063 14.6993 8.30667 14.8901 8.15723 15.0308C8.00779 15.1714 7.8051 15.2504 7.59375 15.2504ZM8.39063 11.5004C8.39063 11.6993 8.30667 11.8901 8.15723 12.0308C8.00779 12.1714 7.8051 12.2504 7.59375 12.2504C7.38241 12.2504 7.17972 12.1714 7.03028 12.0308C6.88083 11.8901 6.79688 11.6993 6.79688 11.5004V5.50042C6.79688 5.30151 6.88083 5.11075 7.03028 4.97009C7.17972 4.82944 7.38241 4.75042 7.59375 4.75042C7.8051 4.75042 8.00779 4.82944 8.15723 4.97009C8.30667 5.11075 8.39063 5.30151 8.39063 5.50042V11.5004Z" fill="white"/>
</g>
<path d="M14.5 15H18.5V13L21.5 16L18.5 19V17H14.5V15Z" fill="white"/>
<defs>
<clipPath id="clip0_8170_7462">
<rect width="18" height="18" fill="white" transform="translate(-1.5 1)"/>
</clipPath>
</defs>
</svg>
